<?xml version="1.0" encoding="utf-8"?>
<!-- Generator: Adobe Illustrator 16.0.0, SVG Export Plug-In . SVG Version: 6.00 Build 0)  -->
<!DOCTYPE svg PUBLIC "-//W3C//DTD SVG 1.1//EN" "http://www.w3.org/Graphics/SVG/1.1/DTD/svg11.dtd">
<svg version="1.1" id="Capa_1" xmlns="http://www.w3.org/2000/svg" xmlns:xlink="http://www.w3.org/1999/xlink" x="0px" y="0px"
	 width="841.89px" height="595.276px" viewBox="0 0 841.89 595.276" enable-background="new 0 0 841.89 595.276"
	 xml:space="preserve">
<line fill="none" stroke="#002E67" stroke-width="2" stroke-miterlimit="10" x1="42.52" y1="65.347" x2="319.52" y2="65.347"/>
<text transform="matrix(1 0 0 1 42.5195 60.8799)"><tspan x="0" y="0" fill="#002E67" font-family="'NeoTechStd-Regular'" font-size="24">Ho</tspan><tspan x="28.488" y="0" fill="#002E67" font-family="'NeoTechStd-Regular'" font-size="24">w</tspan><tspan x="47.328" y="0" fill="#002E67" font-family="'NeoTechStd-Regular'" font-size="24"> </tspan><tspan x="52.799" y="0" fill="#002E67" font-family="'NeoTechStd-Regular'" font-size="24">t</tspan><tspan x="60.599" y="0" fill="#002E67" font-family="'NeoTechStd-Regular'" font-size="24">o </tspan><tspan x="78.695" y="0" fill="#002E67" font-family="'NeoTechStd-Regular'" font-size="24">c</tspan><tspan x="89.063" y="0" fill="#002E67" font-family="'NeoTechStd-Regular'" font-size="24" letter-spacing="-1">r</tspan><tspan x="96.503" y="0" fill="#002E67" font-family="'NeoTechStd-Regular'" font-size="24">ea</tspan><tspan x="121.63" y="0" fill="#002E67" font-family="'NeoTechStd-Regular'" font-size="24">t</tspan><tspan x="129.31" y="0" fill="#002E67" font-family="'NeoTechStd-Regular'" font-size="24">e new</tspan><tspan x="191.757" y="0" fill="#002E67" font-family="'NeoTechStd-Regular'" font-size="24"> </tspan><tspan x="197.205" y="0" fill="#002E67" font-family="'NeoTechStd-Regular'" font-size="24">r</tspan><tspan x="205.245" y="0" fill="#002E67" font-family="'NeoTechStd-Regular'" font-size="24">i</tspan><tspan x="210.692" y="0" fill="#002E67" font-family="'NeoTechStd-Regular'" font-size="24">bb</tspan><tspan x="235.748" y="0" fill="#002E67" font-family="'NeoTechStd-Regular'" font-size="24">o</tspan><tspan x="248.348" y="0" fill="#002E67" font-family="'NeoTechStd-Regular'" font-size="24">ns</tspan><tspan x="271.987" y="0" fill="#002E67" font-family="'NeoTechStd-Regular'" font-size="24">:</tspan></text>
<text transform="matrix(1 0 0 1 42.5195 145.4688)" fill="#002E67" font-family="'NeoTechStd-Medium'" font-size="16">1_</text>
<text transform="matrix(1 0 0 1 60.9678 145.4688)"><tspan x="0" y="0" fill="#002E67" font-family="'NeoTechStd-Regular'" font-size="16">C</tspan><tspan x="8.72" y="0" fill="#002E67" font-family="'NeoTechStd-Regular'" font-size="16">r</tspan><tspan x="14" y="0" fill="#002E67" font-family="'NeoTechStd-Regular'" font-size="16">ea</tspan><tspan x="31.359" y="0" fill="#002E67" font-family="'NeoTechStd-Regular'" font-size="16">t</tspan><tspan x="36.815" y="0" fill="#002E67" font-family="'NeoTechStd-Regular'" font-size="16">e the ribbon with a t</tspan><tspan x="178.989" y="0" fill="#002E67" font-family="'NeoTechStd-Regular'" font-size="16">r</tspan><tspan x="184.236" y="0" fill="#002E67" font-family="'NeoTechStd-Regular'" font-size="16">ace</tspan></text>
<text transform="matrix(1 0 0 1 42.5195 203.0684)" fill="#002E67" font-family="'NeoTechStd-Medium'" font-size="16">2_</text>
<text transform="matrix(1 0 0 1 60.9678 203.0684)"><tspan x="0" y="0" fill="#002E67" font-family="'NeoTechStd-Regular'" font-size="16">Con</tspan><tspan x="26.352" y="0" fill="#002E67" font-family="'NeoTechStd-Regular'" font-size="16">t</tspan><tspan x="31.872" y="0" fill="#002E67" font-family="'NeoTechStd-Regular'" font-size="16">our t</tspan><tspan x="64.831" y="0" fill="#002E67" font-family="'NeoTechStd-Regular'" font-size="16">r</tspan><tspan x="70.079" y="0" fill="#002E67" font-family="'NeoTechStd-Regular'" font-size="16">ace le</tspan><tspan x="111.23" y="0" fill="#002E67" font-family="'NeoTechStd-Regular'" font-size="16">a</tspan><tspan x="119.582" y="0" fill="#002E67" font-family="'NeoTechStd-Regular'" font-size="16">ving two t</tspan><tspan x="190.509" y="0" fill="#002E67" font-family="'NeoTechStd-Regular'" font-size="16">r</tspan><tspan x="195.757" y="0" fill="#002E67" font-family="'NeoTechStd-Regular'" font-size="16">aces </tspan></text>
<text transform="matrix(1 0 0 1 42.5195 222.2686)"><tspan x="0" y="0" fill="#002E67" font-family="'NeoTechStd-Regular'" font-size="16">c</tspan><tspan x="6.656" y="0" fill="#002E67" font-family="'NeoTechStd-Regular'" font-size="16">omple</tspan><tspan x="49.407" y="0" fill="#002E67" font-family="'NeoTechStd-Regular'" font-size="16">t</tspan><tspan x="54.863" y="0" fill="#002E67" font-family="'NeoTechStd-Regular'" font-size="16">ely pa</tspan><tspan x="97.646" y="0" fill="#002E67" font-family="'NeoTechStd-Regular'" font-size="16">r</tspan><tspan x="102.894" y="0" fill="#002E67" font-family="'NeoTechStd-Regular'" font-size="16">allel</tspan></text>
<text transform="matrix(1 0 0 1 42.5195 279.8687)" fill="#002E67" font-family="'NeoTechStd-Medium'" font-size="16">3_</text>
<text transform="matrix(1 0 0 1 60.9678 279.8687)"><tspan x="0" y="0" fill="#002E67" font-family="'NeoTechStd-Regular'" font-size="16">With both t</tspan><tspan x="78.479" y="0" fill="#002E67" font-family="'NeoTechStd-Regular'" font-size="16">r</tspan><tspan x="83.727" y="0" fill="#002E67" font-family="'NeoTechStd-Regular'" font-size="16">aces selec</tspan><tspan x="155.725" y="0" fill="#002E67" font-family="'NeoTechStd-Regular'" font-size="16">t</tspan><tspan x="161.165" y="0" fill="#002E67" font-family="'NeoTechStd-Regular'" font-size="16">ed c</tspan><tspan x="189.708" y="0" fill="#002E67" font-family="'NeoTechStd-Regular'" font-size="16">r</tspan><tspan x="194.988" y="0" fill="#002E67" font-family="'NeoTechStd-Regular'" font-size="16">ea</tspan><tspan x="212.348" y="0" fill="#002E67" font-family="'NeoTechStd-Regular'" font-size="16">t</tspan><tspan x="217.788" y="0" fill="#002E67" font-family="'NeoTechStd-Regular'" font-size="16">e the </tspan></text>
<text transform="matrix(1 0 0 1 42.5195 299.0688)"><tspan x="0" y="0" fill="#002E67" font-family="'NeoTechStd-Regular'" font-size="16">in</tspan><tspan x="12.864" y="0" fill="#002E67" font-family="'NeoTechStd-Regular'" font-size="16">t</tspan><tspan x="18.32" y="0" fill="#002E67" font-family="'NeoTechStd-Regular'" font-size="16">ermedia</tspan><tspan x="75.422" y="0" fill="#002E67" font-family="'NeoTechStd-Regular'" font-size="16">t</tspan><tspan x="80.862" y="0" fill="#002E67" font-family="'NeoTechStd-Regular'" font-size="16">e t</tspan><tspan x="99.23" y="0" fill="#002E67" font-family="'NeoTechStd-Regular'" font-size="16">r</tspan><tspan x="104.478" y="0" fill="#002E67" font-family="'NeoTechStd-Regular'" font-size="16">ace with the Blend </tspan><tspan x="239.691" y="0" fill="#002E67" font-family="'NeoTechStd-Regular'" font-size="16">t</tspan><tspan x="245.211" y="0" fill="#002E67" font-family="'NeoTechStd-Regular'" font-size="16">ool</tspan></text>
<text transform="matrix(1 0 0 1 42.5195 356.6685)" fill="#002E67" font-family="'NeoTechStd-Medium'" font-size="16">4_</text>
<text transform="matrix(1 0 0 1 60.9678 356.6685)"><tspan x="0" y="0" fill="#002E67" font-family="'NeoTechStd-Regular'" font-size="16">P</tspan><tspan x="9.216" y="0" fill="#002E67" font-family="'NeoTechStd-Regular'" font-size="16">er</tspan><tspan x="23.583" y="0" fill="#002E67" font-family="'NeoTechStd-Regular'" font-size="16">f</tspan><tspan x="28.959" y="0" fill="#002E67" font-family="'NeoTechStd-Regular'" font-size="16">ect the tips with Layer Clipping </tspan></text>
<text transform="matrix(1 0 0 1 42.5195 375.8687)"><tspan x="0" y="0" fill="#002E67" font-family="'NeoTechStd-Regular'" font-size="16">and </tspan><tspan x="30.175" y="0" fill="#002E67" font-family="'NeoTechStd-Regular'" font-size="16">e</tspan><tspan x="38.463" y="0" fill="#002E67" font-family="'NeoTechStd-Regular'" font-size="16">xpand appea</tspan><tspan x="129.373" y="0" fill="#002E67" font-family="'NeoTechStd-Regular'" font-size="16">r</tspan><tspan x="134.621" y="0" fill="#002E67" font-family="'NeoTechStd-Regular'" font-size="16">ance </tspan><tspan x="172.076" y="0" fill="#002E67" font-family="'NeoTechStd-Regular'" font-size="16">t</tspan><tspan x="177.596" y="0" fill="#002E67" font-family="'NeoTechStd-Regular'" font-size="16">o le</tspan><tspan x="202.875" y="0" fill="#002E67" font-family="'NeoTechStd-Regular'" font-size="16">a</tspan><tspan x="211.228" y="0" fill="#002E67" font-family="'NeoTechStd-Regular'" font-size="16">v</tspan><tspan x="219.355" y="0" fill="#002E67" font-family="'NeoTechStd-Regular'" font-size="16">e the </tspan></text>
<text transform="matrix(1 0 0 1 42.5195 395.0688)" fill="#002E67" font-family="'NeoTechStd-Regular'" font-size="16">sashes as a unique element</text>
<g>
	<defs>
		<rect id="SVGID_1_" width="841.89" height="595.276"/>
	</defs>
	<clipPath id="SVGID_2_">
		<use xlink:href="#SVGID_1_"  overflow="visible"/>
	</clipPath>
	<path clip-path="url(#SVGID_2_)" fill="none" stroke="#142B59" stroke-width="19.573" stroke-miterlimit="10" d="M433.543,115.896
		c0,0,15.109,0,48.537,25.662c31.891,24.482,81.813,11.767,81.813,11.767"/>
	<path clip-path="url(#SVGID_2_)" fill="none" stroke="#142B59" stroke-width="4.838" stroke-miterlimit="10" d="M432.707,290.608
		c3.079,0,20.15,1.335,54.477,27.686c27.653,21.23,72.984,10.156,73.439,10.042 M432.707,298.856c0.519,0,3.327,0.318,8.024,1.928
		c6.828,2.339,18.235,7.588,34.606,19.466c3.868,2.815,7.97,5.54,12.277,8.195c13.638,8.404,29.834,10.899,43.688,11.113
		c17.343,0.263,31.048-3.104,31.725-3.276 M565.435,344.228c-1.104,0.28-14.616,3.62-32.249,3.62
		c-17.944,0-40.162-3.456-57.944-17.107c-16.392-12.584-27.789-18.442-34.482-21.141c-5.05-2.035-8.052-2.497-8.052-2.497
		 M432.707,179.406c3.079,0,20.15,1.335,54.477,27.686c27.653,21.231,72.984,10.156,73.439,10.042 M565.435,233.026
		c-1.104,0.281-14.616,3.619-32.249,3.619c-17.944,0-40.162-3.454-57.944-17.105c-16.392-12.584-27.789-18.443-34.482-21.142
		c-5.05-2.036-8.052-2.497-8.052-2.497"/>
	<path clip-path="url(#SVGID_2_)" fill="#142B59" d="M541.521,445.969c-0.343-8.515-2.282-15.878-4.528-24.405l-0.164-0.62
		c-2.363-8.977,0.24-16.327,1.525-19.169c-1.155,0.32-3.242,0.962-5.872,2.041c-1.292,4.384-2.288,10.929-0.332,18.359l0.164,0.622
		c2.173,8.253,4.052,15.38,4.372,23.367c0.115,2.839,0.031,5.716-0.26,8.714c1.789-1.021,3.522-2.146,5.086-3.365
		C541.592,449.643,541.595,447.799,541.521,445.969"/>
	<path clip-path="url(#SVGID_2_)" fill="#142B59" d="M532.848,439.843c-0.257-1.592-0.507-3.018-0.766-4.357
		c-0.018-0.113-0.81-3.965-1.163-5.581c-1.222-5.586-3.255-10.863-2.91-16.432c0.199-3.199,0.656-5.931,1.208-8.206
		c-1.739,0.834-3.609,1.83-5.537,3.013c-0.226,1.509-0.4,3.139-0.498,4.895c-0.611,10.841,3.897,20.077,4.89,27.437
		c0.826,6.141,1.072,11.578,0.076,18.258c1.681-0.69,3.478-1.49,5.278-2.39C534.064,450.61,533.758,445.5,532.848,439.843"/>
	<path clip-path="url(#SVGID_2_)" fill="#142B59" d="M522.022,428.967l-0.164-0.621c-1.541-5.854-1.95-11.992-1.232-18.059
		c-1.723,1.212-3.458,2.576-5.155,4.106c-0.16,5.125,0.408,10.246,1.708,15.186l0.164,0.621c3.365,12.775,5.137,19.507,2.583,31.605
		c1.035-0.312,2.916-0.91,5.236-1.771C527.125,448.349,525.166,440.906,522.022,428.967"/>
	<path clip-path="url(#SVGID_2_)" fill="#142B59" d="M589.052,462.381c-0.247,0.686-0.511,1.365-0.785,2.033
		c0.527,1.194,1.505,3.127,3.018,5.148c0.94-1.964,1.89-4.185,2.672-6.508C592.401,462.632,590.762,462.385,589.052,462.381"/>
	<path clip-path="url(#SVGID_2_)" fill="#142B59" d="M605.688,470.177c-0.856,2.554-1.775,4.931-2.658,7.025
		c1.641,0.318,3.371,0.438,5.104,0.296c0.415-1.027,0.831-2.104,1.241-3.225C608.528,473.191,607.28,471.718,605.688,470.177"/>
	<path clip-path="url(#SVGID_2_)" fill="#142B59" d="M598.032,464.624c-0.879,3.075-2.021,6.02-3.229,8.692
		c0.621,0.522,1.286,1.021,2.002,1.479c0.651,0.416,1.374,0.799,2.146,1.14c1.232-2.661,2.399-5.581,3.351-8.653
		C601.004,466.31,599.575,465.395,598.032,464.624"/>
	<path clip-path="url(#SVGID_2_)" fill="#142B59" d="M611.93,472.476l0.083,0.083c4.484,4.489,9.566,9.581,16.58,15.074
		c19.715,15.443,39.8,20.595,53.288,22.188c1.555,0.184,3.019,0.319,4.388,0.419c1.215-1.391,2.224-2.976,3.063-4.652
		c-11.936-0.474-35.024-3.957-57.756-21.763c-6.782-5.313-11.753-10.291-16.14-14.685l-0.083-0.083
		c-5.889-5.897-11.512-11.519-20.773-13.334c-1.779,1.702-3.229,3.246-4.188,4.311C600.223,460.752,605.437,465.974,611.93,472.476"
		/>
	<path clip-path="url(#SVGID_2_)" fill="#142B59" d="M618.537,467.817c1.093,1.088,2.222,2.213,3.393,3.349
		c2.523,2.45,5.607,5.377,9.346,8.501c2.188,1.825,4.462,3.588,6.755,5.239c12.312,8.847,26.131,14.554,41.072,16.963
		c1.298,0.211,2.542,0.384,3.729,0.523c2.947,0.348,5.533,0.497,7.672,0.541c0.62-1.603,1.111-3.239,1.499-4.829
		c-2.925,0.003-7.109-0.198-12.127-1.012c-14.197-2.289-27.327-7.711-39.021-16.113c-2.198-1.583-4.38-3.275-6.479-5.026
		c-3.615-3.021-6.616-5.869-9.077-8.26c-1.148-1.113-2.267-2.227-3.348-3.304c-0.963-0.96-1.873-1.866-2.803-2.771
		c-5.125-5.011-10.155-9.422-17.605-11.744c-1.679,1.204-3.278,2.509-4.736,3.799c8.366,1.637,13.423,5.992,18.962,11.407
		C616.682,465.97,617.583,466.868,618.537,467.817"/>
	<path clip-path="url(#SVGID_2_)" fill="#142B59" d="M623.579,461.618c0.576,0.584,1.154,1.169,1.743,1.76
		c4.303,4.308,8.752,8.763,14.854,13.545c11.318,8.864,24.33,14.688,38.677,17.31c1.637,0.298,3.188,0.526,4.641,0.697
		c3.789,0.448,6.905,0.514,9.091,0.465c0.332-1.796,0.543-3.459,0.676-4.856c-2.621,0.106-7.391,0.057-13.538-1.066
		c-13.566-2.478-25.868-7.981-36.562-16.358c-5.872-4.6-10.215-8.949-14.42-13.16c-0.577-0.578-1.149-1.156-1.719-1.733
		c-4.671-4.733-9.453-9.572-16.604-12.964c-2.024,0.582-4.077,1.562-6.067,2.762C613.061,450.966,618.202,456.17,623.579,461.618"/>
	<path clip-path="url(#SVGID_2_)" fill="#142B59" d="M506.656,433.486c4.005,3.862,7.409,7.145,11.328,10.016
		c-0.515-3.079-1.374-5.961-2.039-7.918c-1.916-1.709-3.837-3.562-5.931-5.58c-4.568-4.407-9.747-9.4-16.861-14.761
		c-22.036-16.602-44.286-20.705-57.605-21.487c-0.949,1.371-1.822,2.983-2.616,4.702c12.167,0.375,34.781,3.676,57.31,20.65
		C497.121,424.291,502.187,429.175,506.656,433.486"/>
	<path clip-path="url(#SVGID_2_)" fill="#142B59" d="M441.583,406.625c9.63,1.354,24.23,5.106,39.099,15.29
		c2.482,1.706,4.846,3.47,7.226,5.391c3.421,2.771,6.345,5.435,8.512,7.448c1.222,1.132,2.412,2.257,3.563,3.345
		c1.224,1.157,2.381,2.25,3.555,3.337c4.544,4.224,8.96,8.102,14.948,11.522c0.074-1.867,0.058-3.808-0.071-5.711
		c-4.397-2.83-7.946-5.976-11.587-9.361c-1.161-1.071-2.308-2.155-3.522-3.304c-1.159-1.096-2.358-2.229-3.594-3.374
		c-2.221-2.063-5.225-4.8-8.763-7.665c-2.479-2.001-4.94-3.839-7.53-5.618c-15.644-10.716-31.018-14.665-41.158-16.091
		c-4.061-0.576-7.588-0.803-10.41-0.863c-0.646,1.609-1.225,3.25-1.733,4.824C432.967,405.791,436.896,405.96,441.583,406.625"/>
	<path clip-path="url(#SVGID_2_)" fill="#142B59" d="M442.019,414.149c9.177,1.497,23.018,5.47,36.843,15.886
		c5.959,4.491,10.385,8.759,14.664,12.887c6.868,6.623,13.408,12.928,24.007,18.154c0.312-1.439,0.572-3.167,0.749-5.052
		c-9.164-4.793-15.14-10.551-21.396-16.586c-4.384-4.229-8.918-8.601-15.113-13.268c-14.613-11.011-29.26-15.212-38.973-16.797
		c-5.758-0.94-10.452-1.092-13.462-1.045c-0.559,1.901-0.995,3.597-1.306,4.877C430.547,413.097,435.551,413.092,442.019,414.149"/>
	<path clip-path="url(#SVGID_2_)" fill="#142B59" d="M590.633,472.856c-5.684-6.566-10.878-17.137-14.475-26.528
		c-5.729-14.951-13.864-28.099-23.708-36.225c-4.602-3.798-8.683-6.236-11.523-7.683c-0.425,0.938-1.071,2.549-1.583,4.619
		c2.459,1.295,5.96,3.438,10.026,6.794c9.211,7.604,16.836,20.042,22.269,34.226c3.745,9.775,9.141,20.804,15.336,27.963
		c4.765,5.505,10.377,8.123,18.285,8.394c0.786-1.667,1.523-3.288,2.203-4.82C599.73,479.765,594.918,477.807,590.633,472.856"/>
	<path clip-path="url(#SVGID_2_)" fill="#142B59" d="M583.917,477.16c-4.714-6.24-10.694-16.52-14.577-26.653
		c-5.962-15.563-14.069-28.115-22.828-35.347c-2.777-2.292-5.402-4.078-7.688-5.448c-0.217,1.521-0.321,3.189-0.219,4.951
		c0.013,0.224,0.029,0.441,0.044,0.658c1.493,1.002,3.102,2.183,4.783,3.571c8.125,6.707,15.722,18.549,21.39,33.345
		c4.063,10.606,10.321,21.335,15.234,27.839c5.041,6.674,11.78,10.378,19.612,11.395c1.393-1.253,2.756-2.728,3.997-4.454
		C594.115,486.788,587.464,481.856,583.917,477.16"/>
	<path clip-path="url(#SVGID_2_)" fill="#142B59" d="M575.071,478.335c-6.358-8.624-10.801-17.486-15.871-30.725
		c-5.538-14.451-13.69-22.896-19.993-27.575c0.589,3.443,1.453,6.03,2.226,8.347c4.594,4.581,9.549,11.302,13.249,20.96
		c5.23,13.656,9.873,22.881,16.496,31.864c4.401,5.971,9.158,10.338,14.544,13.349c1.686,0.943,3.434,1.74,5.233,2.397
		c1.665-0.694,3.783-1.75,5.983-3.305C588.525,491.864,581.313,486.802,575.071,478.335"/>
</g>
</svg>
